# This file uses centimeters as units for non-parametric coordinates.

mtllib TreeLeaves_textured.mtl
g default
v 215.846970 91.896065 415.051025
v 211.840088 87.399178 440.094940
v 203.430939 94.866211 466.310730
v 200.966095 121.329460 462.635254
v 205.063477 134.813080 437.975952
v 213.382126 118.359314 411.375580
v 200.624054 85.363792 403.950470
v 186.107910 75.525558 430.473450
v 175.515533 91.459183 466.924103
v 178.906815 124.410339 466.268433
v 177.306213 139.752136 430.514343
v 200.246017 123.580185 390.591156
v 180.139404 82.941910 400.057587
v 161.678421 119.822571 458.251709
v 176.024811 120.766685 386.286682
v 163.386444 85.298035 402.726440
v 159.289063 71.814415 427.385742
v 154.476807 92.339310 446.872284
v 148.505569 114.731430 450.310669
v 152.602936 128.215057 425.651367
v 160.921600 111.761292 399.050964
v 214.598663 107.391556 440.297852
v 149.753876 99.235947 425.063843
v 250.384705 148.619308 327.138702
v 250.795868 112.774124 327.943207
v 237.721695 105.132889 368.160431
v 229.059601 115.066101 396.889832
v 229.801529 139.795700 394.860168
v 241.722626 158.552521 355.868103
v 216.421478 158.317322 295.988678
v 217.786041 108.058929 295.772858
v 219.507019 79.344604 360.111816
v 198.279251 104.821213 411.107788
v 199.479706 144.834564 407.823730
v 203.817856 175.260132 340.199127
v 189.605881 79.497421 351.043610
v 168.378098 104.974030 402.039551
v 169.578552 144.987366 398.755524
v 182.790497 141.472137 305.698883
v 186.292419 113.269516 299.773193
v 166.651688 96.128616 339.908752
v 150.777374 115.466171 373.148956
v 151.519287 140.195770 371.119293
v 177.691193 159.958344 326.576874
v 248.962128 131.795486 364.816498
v 152.199951 132.289993 335.471161
v 281.114502 180.934952 344.252563
v 273.543060 163.251831 339.119385
v 247.636536 148.468735 349.382996
v 242.787674 164.112518 361.718445
v 272.061188 187.494781 353.912994
v 278.802551 198.417480 320.937347
v 266.533417 170.889206 313.532288
v 226.506851 147.794113 329.184540
v 219.284561 173.104736 348.707336
v 258.521851 205.909531 340.657013
v 248.995819 184.369385 289.844391
v 209.126129 161.471603 304.839233
v 201.930328 186.775803 324.339386
v 248.084320 213.334930 309.526123
v 227.150711 198.080338 277.640991
v 202.348083 183.332703 287.096222
v 197.547729 198.680725 299.258972
v 224.166916 214.942291 290.876892
v 265.596710 163.341797 357.753815
v 209.352829 205.262527 281.622498
v 261.342957 147.369125 338.112122
v 247.887482 150.830658 315.014099
v 230.509720 164.294998 291.591980
v 216.727615 182.178345 276.904175
v 250.513489 182.389236 365.339935
v 236.027084 197.999207 349.849121
v 222.113098 208.194366 322.779327
v 208.465088 215.089935 301.060425
v 268.292908 117.242882 330.171021
v 267.634308 100.901985 331.506409
v 252.671661 85.906593 346.578033
v 244.722183 99.358269 353.014374
v 259.762451 122.203735 337.306702
v 260.312164 122.913673 308.156372
v 258.940826 97.504646 310.755554
v 235.891769 74.094383 333.944122
v 223.489777 95.908447 343.935455
v 243.302826 128.258453 324.397583
v 240.495544 96.008591 291.493164
v 217.480865 72.603745 314.102478
v 205.100143 94.414131 324.074127
v 231.827927 122.246384 299.863098
v 219.138931 96.665833 281.671021
v 204.978760 81.774857 295.956665
v 197.148987 94.977066 302.324219
v 212.285431 111.760124 288.256927
v 262.263489 103.927887 347.023163
v 203.498276 98.131546 285.439026
v 263.051300 85.743637 336.235901
v 250.782776 78.235466 319.305542
v 232.475266 76.844658 300.231476
v 215.933304 82.052559 286.373322
v 245.259598 115.757065 350.341156
v 228.833344 118.898193 336.507141
v 214.020966 115.070236 314.924652
v 200.622192 110.387062 298.257690
vt 0.297849 0.204427
vt 0.327651 0.037361
vt 0.424699 0.142103
vt 0.668766 0.469992
vt 0.518855 0.449205
vt 0.463435 0.012907
vt 0.387815 0.232887
vt 0.551609 0.118734
vt 0.520768 0.245996
vt 0.129155 0.914558
vt 0.081284 0.856561
vt 0.152705 0.836781
vt 0.100271 0.779766
vt 0.213907 0.890729
vt 0.177200 0.784270
vt 0.221232 0.817179
vt 0.027450 0.446694
vt 0.168808 0.530483
vt 0.709072 0.050882
vt 0.726853 0.160607
vt 0.627381 0.166390
vt 0.642532 0.272261
vt 0.583734 0.022256
vt 0.534359 0.260947
vt 0.171351 0.466110
vt 0.031845 0.437421
vt 0.525757 0.174902
vt 0.374154 0.388909
vt 0.535446 0.413194
vt 0.373527 0.664106
vt 0.538605 0.698142
vt 0.416096 0.807783
vt 0.370746 0.534862
vt 0.541172 0.545436
vt 0.564522 0.773680
vt 0.232060 0.779625
vt 0.644105 0.543384
vt 0.424440 0.906016
vt 0.305211 0.864311
vt 0.860278 0.447910
vt 0.336650 0.095849
vt 0.227937 0.026539
vt 0.797812 0.439046
vt 0.673088 0.412824
vt 0.180004 0.137390
vt 0.099180 0.006903
vt 0.926178 0.471654
vt 0.747589 0.597641
vt 0.587619 0.545094
vt 0.599895 0.271131
vt 0.557780 0.385726
vt 0.035760 0.103229
vt 0.867185 0.644981
vt 0.675498 0.806253
vt 0.620520 0.826124
vt 0.171960 0.377467
vt 0.319652 0.383368
vt 0.314931 0.540678
vt 0.168593 0.535638
vt 0.212257 0.235164
vt 0.332206 0.246478
vt 0.449692 0.385900
vt 0.450603 0.550538
vt 0.661137 0.904793
vt 0.710164 0.880961
vt 0.194653 0.289701
vt 0.437447 0.678241
vt 0.661590 0.851354
vt 0.736831 0.326039
vt 0.868591 0.281885
vt 0.845767 0.378603
vt 0.707915 0.370409
vt 0.808160 0.166594
vt 0.972297 0.187271
vt 0.988542 0.393061
vt 0.667276 0.249834
vt 0.934535 0.068842
vt 0.952984 0.588232
vt 0.817257 0.556586
vt 0.344484 0.564597
vt 0.491458 0.553509
vt 0.497741 0.692468
vt 0.835441 0.781248
vt 0.324435 0.395253
vt 0.464203 0.377211
vt 0.939669 0.918227
vt 0.852542 0.883727
vt 0.186849 0.582554
vt 0.749576 0.843368
vt 0.316040 0.246545
vt 0.444509 0.239615
vt 0.165211 0.412504
vt 0.810437 0.367386
vt 0.799430 0.539060
vt 0.949433 0.368929
vt 0.989482 0.529400
vt 0.661285 0.592486
vt 0.934313 0.689663
vt 0.793868 0.699540
vt 0.647631 0.681789
vt 0.191694 0.306168
vt 0.342603 0.317227
vt 0.328301 0.482876
vt 0.175208 0.423195
vt 0.522888 0.324281
vt 0.502900 0.570957
vt 0.316790 0.638561
vt 0.490727 0.675032
vt 0.948242 0.408348
vt 0.979004 0.573097
vt 0.865262 0.614449
vt 0.638903 0.403740
vt 0.175714 0.626623
vt 0.120248 0.219743
vt 0.056433 0.355921
vt 0.046169 0.545338
vt 0.103524 0.686984
vt 0.606857 0.230238
vt 0.580014 0.359773
vt 0.637429 0.525805
vt 0.084616 0.251724
vt 0.185684 0.253565
vt 0.037962 0.407852
vt 0.057195 0.612489
vt 0.141271 0.755136
vt 0.240686 0.731108
vt 0.058391 0.276674
vt 0.067893 0.622300
vt 0.771436 0.758861
vt 0.077102 0.230333
vt 0.841078 0.974764
vt 0.868547 0.725561
vt 0.799986 0.017366
vt 0.670571 0.075664
vt 0.808964 0.247659
vt 0.913736 0.223554
vt 0.402134 0.255641
vt 0.226419 0.247969
vt 0.090630 0.223683
vt 0.660332 0.679547
vt 0.615578 0.876581
vt 0.318040 0.673958
vt 0.197541 0.678565
vt 0.718413 0.834087
vt 0.676554 0.719050
vt 0.552693 0.688580
vt 0.803015 0.302874
vt 0.910096 0.322257
vt 0.690206 0.279119
vt 0.322240 0.190485
vt 0.450421 0.257618
vt 0.678421 0.361693
vt 0.168575 0.619498
vt 0.051681 0.622875
vt 0.932165 0.819948
vt 0.369089 0.706937
vt 0.749542 0.935898
vt 0.760507 0.698039
vt 0.622902 0.685154
vt 0.829608 0.231837
vt 0.947461 0.235519
vt 0.704919 0.224385
vn 0.742722 -0.139820 -0.654839
vn 0.742722 -0.139820 -0.654839
vn 0.742722 -0.139820 -0.654839
vn 0.742722 -0.139820 -0.654839
vn 0.444998 -0.891207 -0.087902
vn 0.444998 -0.891207 -0.087902
vn 0.444998 -0.891207 -0.087901
vn 0.444998 -0.891207 -0.087901
vn 0.190117 -0.899446 0.393514
vn 0.190117 -0.899446 0.393514
vn 0.190117 -0.899446 0.393514
vn 0.190117 -0.899446 0.393514
vn 0.083992 0.071144 0.993924
vn 0.083992 0.071144 0.993924
vn 0.083992 0.071144 0.993923
vn 0.083992 0.071144 0.993923
vn 0.110936 0.895168 0.431702
vn 0.110936 0.895169 0.431702
vn 0.110936 0.895169 0.431702
vn 0.110936 0.895168 0.431702
vn 0.392439 0.885222 -0.249746
vn 0.392439 0.885222 -0.249746
vn 0.392439 0.885222 -0.249746
vn 0.392439 0.885222 -0.249746
vn 0.206890 -0.317900 -0.925276
vn 0.206890 -0.317900 -0.925276
vn 0.206890 -0.317900 -0.925276
vn 0.206890 -0.317900 -0.925276
vn 0.162532 -0.950805 -0.263730
vn 0.162532 -0.950805 -0.263730
vn 0.162532 -0.950805 -0.263730
vn -0.434713 0.062616 0.898390
vn -0.434713 0.062616 0.898390
vn -0.434713 0.062616 0.898390
vn -0.398038 0.836445 0.376730
vn -0.398038 0.836445 0.376730
vn -0.398038 0.836445 0.376730
vn -0.036819 0.918677 -0.393291
vn -0.036819 0.918677 -0.393291
vn -0.036819 0.918677 -0.393291
vn -0.371074 -0.278389 -0.885892
vn -0.371074 -0.278389 -0.885892
vn -0.371074 -0.278389 -0.885892
vn -0.371074 -0.278389 -0.885892
vn 0.032467 -0.934085 -0.355571
vn 0.032467 -0.934085 -0.355571
vn 0.032467 -0.934085 -0.355571
vn 0.032467 -0.934085 -0.355571
vn -0.191018 -0.845572 0.498519
vn -0.191018 -0.845572 0.498519
vn -0.191018 -0.845572 0.498519
vn -0.191018 -0.845572 0.498519
vn -0.613302 -0.159583 0.773559
vn -0.613302 -0.159583 0.773559
vn -0.613302 -0.159583 0.773559
vn -0.613302 -0.159583 0.773559
vn -0.472115 0.813025 0.340732
vn -0.472115 0.813025 0.340732
vn -0.472115 0.813025 0.340732
vn -0.472115 0.813025 0.340732
vn -0.479953 0.764554 -0.430236
vn -0.479953 0.764554 -0.430235
vn -0.479953 0.764554 -0.430235
vn -0.479953 0.764554 -0.430235
vn 0.995756 0.091764 -0.007086
vn 0.995756 0.091764 -0.007086
vn 0.995756 0.091764 -0.007086
vn 0.981697 -0.136799 0.132502
vn 0.981697 -0.136799 0.132502
vn 0.981697 -0.136799 0.132502
vn 0.932316 -0.132059 0.336671
vn 0.932316 -0.132059 0.336671
vn 0.932316 -0.132059 0.336671
vn 0.882157 0.144426 0.448264
vn 0.882157 0.144426 0.448264
vn 0.882157 0.144426 0.448264
vn 0.882683 0.334854 0.329764
vn 0.882683 0.334854 0.329764
vn 0.882683 0.334854 0.329764
vn 0.938627 0.333758 0.087086
vn 0.938627 0.333758 0.087086
vn 0.938627 0.333758 0.087086
vn -0.882157 -0.144425 -0.448265
vn -0.882157 -0.144425 -0.448265
vn -0.882157 -0.144425 -0.448265
vn -0.882682 -0.334855 -0.329764
vn -0.882682 -0.334855 -0.329764
vn -0.882682 -0.334855 -0.329764
vn -0.942162 -0.318875 0.103198
vn -0.942162 -0.318875 0.103198
vn -0.942162 -0.318875 0.103198
vn -0.954454 -0.273002 0.120367
vn -0.954454 -0.273002 0.120367
vn -0.954454 -0.273002 0.120367
vn -0.988950 0.099457 -0.109940
vn -0.988950 0.099457 -0.109940
vn -0.988950 0.099457 -0.109940
vn -0.930754 0.098644 -0.352089
vn -0.930754 0.098644 -0.352089
vn -0.930754 0.098644 -0.352089
vn 0.446222 0.874089 -0.191977
vn 0.446222 0.874089 -0.191977
vn 0.446222 0.874089 -0.191977
vn 0.446222 0.874089 -0.191977
vn 0.687346 0.009210 -0.726272
vn 0.687346 0.009210 -0.726272
vn 0.687346 0.009210 -0.726272
vn 0.687346 0.009210 -0.726272
vn 0.612256 -0.765066 -0.199542
vn 0.612256 -0.765066 -0.199542
vn 0.612256 -0.765066 -0.199542
vn 0.612256 -0.765066 -0.199542
vn 0.552409 -0.665086 0.502499
vn 0.552409 -0.665086 0.502499
vn 0.552409 -0.665086 0.502499
vn 0.552409 -0.665086 0.502499
vn 0.401161 0.062967 0.913841
vn 0.401161 0.062967 0.913841
vn 0.401161 0.062967 0.913841
vn 0.401161 0.062967 0.913841
vn 0.257403 0.861916 0.436858
vn 0.257403 0.861916 0.436858
vn 0.257403 0.861916 0.436858
vn 0.257403 0.861916 0.436857
vn 0.118898 -0.905517 -0.407310
vn 0.118898 -0.905517 -0.407310
vn 0.118898 -0.905517 -0.407310
vn -0.126192 -0.907431 0.400806
vn -0.126192 -0.907431 0.400806
vn -0.126192 -0.907431 0.400806
vn -0.126192 -0.907430 0.400806
vn -0.288716 0.086916 0.953461
vn -0.288716 0.086916 0.953461
vn -0.288716 0.086916 0.953461
vn -0.288716 0.086916 0.953461
vn -0.117039 0.908469 0.401230
vn -0.117039 0.908469 0.401230
vn -0.117039 0.908469 0.401230
vn -0.378077 0.766062 -0.519814
vn -0.378077 0.766062 -0.519814
vn -0.378077 0.766062 -0.519814
vn -0.378077 0.766062 -0.519814
vn -0.216342 0.062844 -0.974293
vn -0.216342 0.062844 -0.974293
vn -0.216342 0.062844 -0.974293
vn -0.216342 0.062844 -0.974293
vn -0.258562 -0.814300 -0.519674
vn -0.258562 -0.814300 -0.519674
vn -0.258562 -0.814300 -0.519674
vn -0.258562 -0.814300 -0.519674
vn -0.634526 -0.762530 0.126191
vn -0.634526 -0.762530 0.126191
vn -0.634527 -0.762530 0.126191
vn -0.634526 -0.762530 0.126191
vn -0.840563 0.069313 0.537261
vn -0.840563 0.069313 0.537261
vn -0.840563 0.069313 0.537261
vn -0.840563 0.069313 0.537261
vn -0.502395 0.856115 0.121104
vn -0.502395 0.856115 0.121104
vn -0.502395 0.856115 0.121104
vn -0.502395 0.856115 0.121104
vn 0.934306 0.311034 0.174158
vn 0.934306 0.311034 0.174158
vn 0.934306 0.311034 0.174158
vn 0.998986 0.012430 0.043268
vn 0.998986 0.012430 0.043268
vn 0.998986 0.012430 0.043268
vn 0.907156 -0.353886 0.227668
vn 0.907156 -0.353886 0.227668
vn 0.907156 -0.353886 0.227668
vn 0.870700 -0.320257 0.373251
vn 0.870700 -0.320257 0.373251
vn 0.870700 -0.320257 0.373251
vn 0.845209 0.018478 0.534117
vn 0.845209 0.018478 0.534117
vn 0.845209 0.018478 0.534117
vn 0.825568 0.366787 0.428841
vn 0.825568 0.366787 0.428841
vn 0.825568 0.366787 0.428841
vn -0.688220 0.451514 -0.567881
vn -0.688220 0.451514 -0.567881
vn -0.688220 0.451514 -0.567881
vn -0.705476 0.060766 -0.706124
vn -0.705476 0.060766 -0.706124
vn -0.705476 0.060766 -0.706124
vn -0.762378 -0.369847 -0.531030
vn -0.762378 -0.369847 -0.531030
vn -0.762378 -0.369847 -0.531030
vn -0.899747 -0.384836 -0.205807
vn -0.899747 -0.384836 -0.205807
vn -0.899747 -0.384836 -0.205807
vn -0.999291 0.027906 -0.025269
vn -0.999291 0.027906 -0.025269
vn -0.999291 0.027906 -0.025269
vn -0.750951 0.641518 -0.156609
vn -0.750951 0.641518 -0.156609
vn -0.750951 0.641518 -0.156609
vn 0.667824 0.655023 0.353493
vn 0.667824 0.655023 0.353493
vn 0.667824 0.655023 0.353493
vn 0.667823 0.655023 0.353493
vn 0.895591 -0.302573 -0.326139
vn 0.895591 -0.302573 -0.326139
vn 0.895591 -0.302573 -0.326139
vn 0.895591 -0.302573 -0.326139
vn 0.684803 -0.593309 -0.423119
vn 0.403880 -0.869719 -0.283672
vn 0.376875 -0.886160 -0.269602
vn 0.684803 -0.593309 -0.423119
vn -0.543269 -0.609372 0.577516
vn -0.543269 -0.609372 0.577516
vn -0.543269 -0.609372 0.577516
vn -0.543269 -0.609372 0.577516
vn -0.505423 0.193687 0.840853
vn -0.224369 0.476110 0.850281
vn -0.201793 0.494302 0.845544
vn -0.505423 0.193686 0.840853
vn 0.411737 0.907915 0.078510
vn 0.411737 0.907915 0.078510
vn 0.411737 0.907915 0.078510
vn 0.654262 0.215970 -0.724774
vn 0.654262 0.215970 -0.724774
vn 0.654262 0.215970 -0.724774
vn 0.654262 0.215970 -0.724774
vn 0.510377 -0.526902 -0.679624
vn 0.215175 -0.770846 -0.599580
vn 0.208427 -0.774819 -0.596836
vn 0.510377 -0.526902 -0.679625
vn -0.819698 -0.477459 0.316430
vn -0.819698 -0.477459 0.316430
vn -0.819698 -0.477459 0.316430
vn -0.819698 -0.477459 0.316430
vn -0.618500 0.498614 0.607324
vn -0.397375 0.764341 0.507816
vn -0.393856 0.767409 0.505925
vn -0.618500 0.498614 0.607324
vn 0.592616 0.502536 -0.629495
vn 0.592616 0.502536 -0.629495
vn 0.592616 0.502536 -0.629495
vn 0.592616 0.502536 -0.629495
vn 0.371093 -0.322658 -0.870736
vn -0.001682 -0.565521 -0.824732
vn 0.026004 -0.551382 -0.833847
vn 0.371093 -0.322658 -0.870736
vn -0.955411 -0.294816 0.016539
vn -0.955411 -0.294816 0.016539
vn -0.955411 -0.294816 0.016539
vn -0.955411 -0.294816 0.016539
vn -0.677617 0.554017 0.483632
vn -0.354716 0.857402 0.372878
vn -0.389126 0.835960 0.386978
vn -0.677617 0.554017 0.483632
vn 0.701642 -0.075117 0.708559
vn 0.701642 -0.075117 0.708559
vn 0.701642 -0.075117 0.708559
vn 0.819330 -0.452872 0.351576
vn 0.819330 -0.452872 0.351576
vn 0.819330 -0.452872 0.351576
vn 0.570202 -0.693459 0.440436
vn 0.570202 -0.693459 0.440436
vn 0.570202 -0.693459 0.440436
vn 0.570202 -0.693459 0.440436
vn 0.118576 -0.591894 0.797246
vn 0.118576 -0.591894 0.797246
vn 0.118576 -0.591894 0.797246
vn 0.335268 -0.107290 0.935994
vn 0.335268 -0.107290 0.935994
vn 0.335268 -0.107290 0.935994
vn 0.335268 -0.107290 0.935994
vn 0.077914 0.624070 -0.777474
vn 0.077914 0.624070 -0.777474
vn 0.077914 0.624070 -0.777474
vn -0.388393 0.063817 -0.919281
vn -0.388393 0.063817 -0.919281
vn -0.388393 0.063817 -0.919281
vn -0.388393 0.063817 -0.919281
vn -0.846285 0.142169 -0.513410
vn -0.846285 0.142169 -0.513410
vn -0.846285 0.142169 -0.513410
vn -0.566326 0.724819 -0.392317
vn -0.566326 0.724819 -0.392317
vn -0.566326 0.724819 -0.392317
vn -0.566326 0.724819 -0.392317
vn 0.403880 -0.869719 -0.283672
vn 0.005389 -0.997635 -0.068521
vn 0.005389 -0.997635 -0.068521
vn 0.376875 -0.886160 -0.269602
vn 0.208427 -0.774819 -0.596836
vn 0.215175 -0.770846 -0.599580
vn -0.139651 -0.901141 -0.410418
vn -0.139651 -0.901141 -0.410418
vn 0.026004 -0.551382 -0.833847
vn -0.001682 -0.565521 -0.824732
vn -0.371312 -0.694737 -0.616010
vn -0.371312 -0.694737 -0.616010
vn -0.224369 0.476110 0.850281
vn 0.123927 0.697980 0.705312
vn 0.123927 0.697980 0.705312
vn -0.201793 0.494302 0.845544
vn -0.393856 0.767409 0.505925
vn -0.397375 0.764341 0.507816
vn -0.101584 0.939562 0.326961
vn -0.101584 0.939562 0.326961
vn -0.389126 0.835960 0.386978
vn -0.354716 0.857402 0.372878
vn -0.000868 0.978365 0.206886
vn -0.000868 0.978365 0.206886
vn 0.397392 0.917164 0.029830
vn 0.397392 0.917164 0.029830
vn 0.397392 0.917164 0.029830
vn 0.397392 0.917164 0.029830
vn 0.927294 -0.079559 -0.365781
vn 0.927294 -0.079559 -0.365781
vn 0.927294 -0.079559 -0.365781
vn 0.927294 -0.079559 -0.365781
vn 0.833362 -0.438304 -0.336746
vn 0.680427 -0.728676 -0.077783
vn 0.662043 -0.747427 -0.055243
vn 0.833362 -0.438304 -0.336746
vn -0.253459 -0.524804 0.812613
vn -0.253459 -0.524804 0.812613
vn -0.253459 -0.524804 0.812613
vn -0.253459 -0.524804 0.812613
vn -0.500017 0.284432 0.817974
vn -0.341977 0.629863 0.697370
vn -0.327901 0.651808 0.683833
vn -0.500016 0.284432 0.817974
vn 0.053466 0.963808 -0.261182
vn 0.053466 0.963808 -0.261182
vn 0.053466 0.963808 -0.261182
vn 0.493714 0.165147 -0.853799
vn 0.493714 0.165147 -0.853799
vn 0.493714 0.165147 -0.853799
vn 0.493714 0.165147 -0.853799
vn 0.634573 -0.523060 -0.568970
vn 0.453601 -0.809335 -0.373125
vn 0.448920 -0.814160 -0.368259
vn 0.634573 -0.523059 -0.568970
vn -0.571261 -0.587030 0.573634
vn -0.571261 -0.587030 0.573634
vn -0.571261 -0.587030 0.573634
vn -0.571261 -0.587030 0.573634
vn -0.728149 0.438170 0.527073
vn -0.624928 0.712658 0.318721
vn -0.622876 0.715900 0.315458
vn -0.728149 0.438170 0.527073
vn 0.335972 0.429483 -0.838253
vn 0.335972 0.429483 -0.838252
vn 0.335972 0.429483 -0.838252
vn 0.335972 0.429483 -0.838252
vn 0.421053 -0.452698 -0.785989
vn 0.165967 -0.775056 -0.609707
vn 0.186067 -0.756459 -0.627016
vn 0.421053 -0.452698 -0.785989
vn -0.778793 -0.570870 0.259978
vn -0.778793 -0.570870 0.259978
vn -0.778793 -0.570870 0.259978
vn -0.778793 -0.570870 0.259978
vn -0.809359 0.426207 0.404085
vn -0.625927 0.763860 0.157269
vn -0.649356 0.738254 0.182530
vn -0.809359 0.426207 0.404085
vn 0.713649 0.402480 0.573337
vn 0.713649 0.402480 0.573337
vn 0.713649 0.402480 0.573337
vn 0.944259 -0.011169 0.329014
vn 0.944259 -0.011169 0.329014
vn 0.944259 -0.011169 0.329014
vn 0.805289 -0.276296 0.524567
vn 0.805289 -0.276296 0.524567
vn 0.805289 -0.276296 0.524567
vn 0.805289 -0.276296 0.524567
vn 0.365663 -0.216979 0.905103
vn 0.365663 -0.216979 0.905103
vn 0.365663 -0.216979 0.905103
vn 0.396020 0.328774 0.857366
vn 0.396020 0.328774 0.857366
vn 0.396020 0.328774 0.857366
vn 0.396020 0.328774 0.857366
vn -0.193945 0.317007 -0.928381
vn -0.193945 0.317007 -0.928381
vn -0.193945 0.317007 -0.928381
vn -0.428632 -0.379142 -0.820077
vn -0.428632 -0.379142 -0.820077
vn -0.428632 -0.379142 -0.820077
vn -0.428632 -0.379142 -0.820077
vn -0.863200 -0.326009 -0.385492
vn -0.863200 -0.326009 -0.385492
vn -0.863200 -0.326009 -0.385492
vn -0.810863 0.321321 -0.489135
vn -0.810863 0.321321 -0.489135
vn -0.810863 0.321321 -0.489135
vn -0.810863 0.321321 -0.489135
vn 0.680427 -0.728676 -0.077783
vn 0.367469 -0.901617 0.228154
vn 0.367469 -0.901617 0.228154
vn 0.662043 -0.747427 -0.055243
vn 0.448920 -0.814160 -0.368259
vn 0.453601 -0.809335 -0.373125
vn 0.180829 -0.978604 -0.098160
vn 0.180829 -0.978604 -0.098160
vn 0.186067 -0.756459 -0.627016
vn 0.165967 -0.775056 -0.609707
vn -0.120008 -0.941740 -0.314204
vn -0.120008 -0.941740 -0.314204
vn -0.341977 0.629863 0.697370
vn -0.106717 0.892550 0.438140
vn -0.106717 0.892550 0.438140
vn -0.327901 0.651808 0.683833
vn -0.622876 0.715900 0.315458
vn -0.624928 0.712658 0.318721
vn -0.423079 0.904815 0.048099
vn -0.423079 0.904815 0.048099
vn -0.649356 0.738254 0.182530
vn -0.625927 0.763860 0.157269
vn -0.349527 0.932302 -0.092975
vn -0.349527 0.932302 -0.092975
s off
g TreeLeaves:pSphere6
usemtl lambert3SG
f 6/105/1 1/152/2 7/4/3 12/5/4
f 1/152/5 2/93/6 8/94/7 7/4/8
f 2/93/9 3/95/10 9/96/11 8/94/12
f 3/127/13 4/101/14 10/104/15 9/17/16
f 4/101/17 5/102/18 11/103/19 10/104/20
f 5/102/21 6/105/22 12/5/23 11/103/24
f 12/5/25 7/4/26 13/97/27 15/106/28
f 7/4/29 8/94/30 13/97/31
f 9/17/32 10/104/33 14/18/34
f 10/104/35 11/103/36 14/18/37
f 11/103/38 12/5/39 15/106/40
f 15/106/41 13/97/42 16/100/43 21/108/44
f 13/97/45 8/94/46 17/99/47 16/100/48
f 8/94/49 9/96/50 18/98/51 17/99/52
f 9/17/53 14/18/54 19/153/55 18/154/56
f 14/18/57 11/103/58 20/107/59 19/153/60
f 11/103/61 15/106/62 21/108/63 20/107/64
f 1/1/65 6/2/66 22/3/67
f 2/7/68 1/1/69 22/3/70
f 3/9/71 2/7/72 22/3/73
f 4/8/74 3/9/75 22/3/76
f 5/6/77 4/8/78 22/3/79
f 6/2/80 5/6/81 22/3/82
f 21/10/83 16/11/84 23/12/85
f 16/11/86 17/13/87 23/12/88
f 17/13/89 18/15/90 23/12/91
f 18/15/92 19/16/93 23/12/94
f 19/16/95 20/14/96 23/12/97
f 20/14/98 21/10/99 23/12/100
f 29/135/101 24/136/102 30/109/103 35/40/104
f 24/139/105 25/138/106 31/25/107 30/26/108
f 25/138/109 26/137/110 32/28/111 31/25/112
f 26/137/113 27/24/114 33/29/115 32/28/116
f 27/24/117 28/22/118 34/112/119 33/29/120
f 28/22/121 29/135/122 35/40/123 34/112/124
f 31/25/125 32/28/126 36/33/127
f 32/28/128 33/29/129 37/34/130 36/33/131
f 33/29/132 34/112/133 38/37/134 37/34/135
f 34/112/136 35/40/137 38/37/138
f 35/40/139 30/109/140 39/110/141 44/111/142
f 30/26/143 31/25/144 40/113/145 39/128/146
f 31/25/147 36/33/148 41/30/149 40/113/150
f 36/33/151 37/34/152 42/31/153 41/30/154
f 37/34/155 38/37/156 43/140/157 42/31/158
f 38/37/159 35/40/160 44/111/161 43/140/162
f 24/19/163 29/20/164 45/21/165
f 25/23/166 24/19/167 45/21/168
f 26/27/169 25/23/170 45/21/171
f 27/24/172 26/27/173 45/21/174
f 28/22/175 27/24/176 45/21/177
f 29/20/178 28/22/179 45/21/180
f 44/38/181 39/39/182 46/32/183
f 39/39/184 40/36/185 46/32/186
f 40/36/187 41/30/188 46/32/189
f 41/30/190 42/31/191 46/32/192
f 42/31/193 43/35/194 46/32/195
f 43/35/196 44/38/197 46/32/198
f 51/50/199 47/149/200 52/44/201 56/51/202
f 47/149/203 48/147/204 53/43/205 52/44/206
f 48/147/207 67/148/208 68/47/209 53/43/210
f 49/60/211 50/61/212 55/57/213 54/56/214
f 50/61/215 71/151/216 72/62/217 55/57/218
f 56/51/219 52/44/220 60/49/221
f 52/44/222 53/43/223 57/48/224 60/49/225
f 53/43/226 68/47/227 69/53/228 57/48/229
f 54/56/230 55/57/231 59/58/232 58/59/233
f 55/57/234 72/62/235 73/63/236 59/58/237
f 60/49/238 57/48/239 61/145/240 64/146/241
f 57/48/242 69/53/243 70/129/244 61/145/245
f 58/59/246 59/58/247 63/142/248 62/143/249
f 59/58/250 73/63/251 74/67/252 63/142/253
f 47/41/254 51/150/255 65/45/256
f 48/42/257 47/41/258 65/45/259
f 49/52/260 67/46/261 48/42/262 65/45/263
f 50/130/264 49/52/265 65/45/266
f 51/150/267 71/66/268 50/130/269 65/45/270
f 64/55/271 61/54/272 66/68/273
f 61/54/274 70/144/275 62/65/276 66/68/277
f 62/65/278 63/64/279 66/68/280
f 63/64/281 74/141/282 64/55/283 66/68/284
f 67/114/285 49/60/286 54/56/287 68/115/288
f 69/116/289 68/115/290 54/56/291 58/59/292
f 70/117/293 69/116/294 58/59/295 62/143/296
f 71/151/297 51/50/298 56/51/299 72/62/300
f 73/63/301 72/62/302 56/51/303 60/49/304
f 74/67/305 73/63/306 60/49/307 64/146/308
f 79/118/309 75/162/310 80/72/311 84/119/312
f 75/162/313 76/160/314 81/71/315 80/72/316
f 76/160/317 95/161/318 96/75/319 81/71/320
f 77/122/321 78/90/322 83/84/323 82/92/324
f 78/90/325 99/91/326 100/85/327 83/84/328
f 84/119/329 80/72/330 88/120/331
f 80/72/332 81/71/333 85/79/334 88/120/335
f 81/71/336 96/75/337 97/78/338 85/79/339
f 82/92/340 83/84/341 87/80/342 86/88/343
f 83/84/344 100/85/345 101/81/346 87/80/347
f 88/120/348 85/79/349 89/158/350 92/159/351
f 85/79/352 97/78/353 98/132/354 89/158/355
f 86/88/356 87/80/357 91/156/358 90/126/359
f 87/80/360 101/81/361 102/82/362 91/156/363
f 75/69/364 79/76/365 93/73/366
f 76/70/367 75/69/368 93/73/369
f 77/77/370 95/74/371 76/70/372 93/73/373
f 78/133/374 77/77/375 93/73/376
f 79/76/377 99/134/378 78/133/379 93/73/380
f 92/86/381 89/131/382 94/87/383
f 89/131/384 98/157/385 90/89/386 94/87/387
f 90/89/388 91/83/389 94/87/390
f 91/83/391 102/155/392 92/86/393 94/87/394
f 95/121/395 77/122/396 82/92/397 96/123/398
f 97/124/399 96/123/400 82/92/401 86/88/402
f 98/125/403 97/124/404 86/88/405 90/126/406
f 99/91/407 79/118/408 84/119/409 100/85/410
f 101/81/411 100/85/412 84/119/413 88/120/414
f 102/82/415 101/81/416 88/120/417 92/159/418
